<?xml version="1.0" standalone="no"?>
<!DOCTYPE svg PUBLIC "-//W3C//DTD SVG 20010904//EN"
 "http://www.w3.org/TR/2001/REC-SVG-20010904/DTD/svg10.dtd">
<svg version="1.0" xmlns="http://www.w3.org/2000/svg"
 width="350.000000pt" height="350.000000pt" viewBox="0 0 350.000000 350.000000"
 preserveAspectRatio="xMidYMid meet">
<metadata>
Created by potrace 1.11, written by Peter Selinger 2001-2013
</metadata>
<g transform="translate(0.000000,350.000000) scale(0.100000,-0.100000)"
fill="#000000" stroke="none">
<path d="M0 3193 l0 -307 32 30 c18 16 158 154 313 306 l280 278 -312 0 -313
0 0 -307z"/>
<path d="M328 3177 l-328 -322 0 -122 0 -122 158 -3 c86 -2 289 -5 450 -6
l292 -3 0 78 c0 43 3 246 7 451 l6 372 -129 -1 -129 0 -327 -322z"/>
<path d="M930 3262 c0 -132 -3 -334 -7 -450 l-6 -211 196 -3 c194 -3 196 -3
206 19 17 38 56 56 104 50 l43 -6 134 134 134 135 -135 137 c-74 76 -199 204
-279 286 l-144 147 -123 0 -123 0 0 -238z"/>
<path d="M1270 3433 c227 -235 475 -483 484 -483 5 0 128 118 273 263 145 144
268 264 273 265 51 18 -55 22 -542 22 l-552 0 64 -67z"/>
<path d="M2056 3214 l-289 -286 138 -138 c130 -130 139 -137 165 -129 36 13
73 -2 101 -40 l23 -31 193 0 193 0 0 424 c0 233 3 438 6 455 l7 31 -124 0
-124 -1 -289 -285z"/>
<path d="M2605 3448 c-3 -29 -5 -235 -3 -458 l3 -405 448 -3 447 -3 0 125 0
125 -331 336 -332 335 -113 0 -113 0 -6 -52z"/>
<path d="M3066 3298 c111 -112 254 -257 317 -323 l117 -120 0 323 0 322 -317
0 -318 0 201 -202z"/>
<path d="M1606 2771 c-93 -93 -134 -141 -126 -146 8 -5 11 -24 8 -57 l-5 -50
131 -134 131 -134 144 138 c103 99 141 141 132 147 -10 5 -12 23 -8 60 l5 52
-132 132 c-72 72 -134 131 -136 131 -3 0 -68 -62 -144 -139z"/>
<path d="M0 2464 l1 -129 278 -283 279 -283 141 136 c119 116 139 140 131 155
-25 47 0 105 53 123 15 6 17 25 17 202 l0 195 -298 0 c-165 0 -367 3 -450 7
l-152 6 0 -129z"/>
<path d="M920 2381 l0 -199 25 -6 c13 -3 32 -20 40 -36 l16 -30 112 0 c61 0
149 -3 195 -7 l82 -6 0 200 0 200 -25 11 c-14 7 -34 25 -43 42 l-17 30 -192 0
-193 0 0 -199z"/>
<path d="M2178 2543 c-7 -15 -25 -33 -39 -40 -25 -12 -26 -17 -32 -125 -4 -62
-7 -150 -7 -195 l0 -83 200 0 c159 0 200 3 200 13 0 16 41 57 57 57 11 0 28
290 21 360 l-3 35 -192 3 -192 2 -13 -27z"/>
<path d="M2604 2559 c-2 -3 -4 -90 -4 -193 l-2 -188 29 -18 c39 -24 57 -67 43
-105 -6 -15 -9 -29 -8 -31 2 -1 63 -64 136 -138 l134 -136 284 282 284 282 0
123 0 123 -446 2 c-245 2 -448 0 -450 -3z"/>
<path d="M1428 2503 c-16 -4 -18 -22 -18 -204 l0 -199 93 0 93 0 67 68 67 68
-132 137 c-73 76 -137 137 -143 136 -5 -1 -18 -3 -27 -6z"/>
<path d="M1901 2373 l-142 -136 68 -69 67 -68 93 0 93 0 1 168 c1 92 2 180 3
196 1 21 -5 31 -20 36 -18 7 -43 -12 -163 -127z"/>
<path d="M0 1767 l0 -538 33 25 c17 14 140 133 271 265 l239 239 -271 274
-272 273 0 -538z"/>
<path d="M3222 2010 c-229 -227 -271 -273 -263 -287 6 -10 129 -137 275 -283
l266 -265 0 553 c0 303 -1 552 -2 552 -2 -1 -126 -122 -276 -270z"/>
<path d="M1685 2160 l-59 -60 119 0 119 0 -59 60 c-33 33 -60 60 -60 60 0 0
-27 -27 -60 -60z"/>
<path d="M992 2065 c-11 -24 -5 -32 120 -160 72 -74 134 -135 138 -135 3 0 37
28 73 63 l67 62 0 91 0 91 -137 6 c-235 12 -248 11 -261 -18z"/>
<path d="M1410 1998 l0 -83 80 80 c44 44 80 81 80 82 0 2 -36 3 -80 3 l-80 0
0 -82z"/>
<path d="M1508 1983 l-98 -96 0 -141 0 -141 98 -98 97 -97 140 0 140 0 98 98
97 97 0 140 0 140 -98 98 -97 97 -140 0 -140 0 -97 -97z m362 -162 c0 -179 -1
-190 -23 -222 -29 -42 -60 -59 -115 -59 -57 0 -97 25 -122 74 -22 46 -19 56
18 56 21 0 30 -7 39 -30 14 -38 56 -55 95 -39 39 16 48 58 48 222 l0 137 -45
0 c-41 0 -45 2 -45 25 0 24 2 25 75 25 l75 0 0 -189z"/>
<path d="M1995 2000 c44 -44 81 -80 82 -80 2 0 3 36 3 80 l0 80 -82 0 -83 0
80 -80z"/>
<path d="M2100 1987 l0 -93 69 -68 69 -68 138 135 c133 130 138 136 126 161
l-12 26 -195 0 -195 0 0 -93z"/>
<path d="M716 1896 c-75 -72 -136 -136 -136 -141 0 -6 58 -68 129 -139 l129
-129 66 -1 66 -2 132 133 132 133 -35 37 c-19 21 -79 84 -133 139 -95 99 -98
102 -127 91 -21 -8 -37 -8 -57 -1 -28 11 -33 7 -166 -120z"/>
<path d="M2384 1875 l-136 -130 132 -138 133 -138 42 7 c24 3 51 1 62 -4 17
-9 37 7 159 129 l139 139 -133 132 -132 133 -64 0 -65 0 -137 -130z"/>
<path d="M1320 1805 l-55 -55 63 -63 62 -62 0 118 c0 64 -4 117 -8 117 -4 0
-32 -25 -62 -55z"/>
<path d="M2100 1747 c0 -64 1 -117 3 -117 1 0 28 26 60 58 l57 58 -60 59 -60
59 0 -117z"/>
<path d="M278 1466 l-278 -273 0 -131 0 -132 445 0 445 0 0 193 0 192 -30 17
c-36 20 -54 62 -44 98 5 14 8 28 8 32 1 6 -263 279 -268 277 0 0 -126 -123
-278 -273z"/>
<path d="M1111 1596 c-172 -172 -172 -170 16 -179 75 -4 162 -7 193 -7 l57 0
6 93 5 92 -66 68 c-37 37 -69 67 -72 67 -3 0 -65 -60 -139 -134z"/>
<path d="M2168 1663 l-68 -69 0 -90 0 -91 137 -6 c234 -12 248 -11 261 17 10
23 2 34 -126 166 l-137 141 -67 -68z"/>
<path d="M2788 1583 c-107 -108 -135 -141 -128 -153 25 -40 -9 -120 -51 -120
-18 0 -19 -9 -19 -200 l0 -200 455 0 455 0 0 118 -1 117 -283 288 c-156 158
-286 287 -288 287 -2 0 -65 -62 -140 -137z"/>
<path d="M1408 1564 c-2 -5 -5 -39 -7 -76 -3 -80 -3 -80 98 -76 l72 3 -79 79
c-44 43 -81 74 -84 70z"/>
<path d="M1995 1490 l-80 -80 83 0 82 0 0 80 c0 44 -1 80 -3 80 -1 0 -38 -36
-82 -80z"/>
<path d="M982 1366 c-12 -20 -32 -38 -46 -42 l-26 -6 0 -194 0 -194 173 0 c94
0 181 -3 193 -6 16 -4 24 1 34 25 6 17 25 36 41 43 l29 13 0 192 0 193 -137 0
c-76 0 -161 3 -189 6 -50 6 -51 5 -72 -30z"/>
<path d="M1400 1197 c0 -193 0 -194 23 -204 21 -10 35 0 160 124 75 75 137
138 137 142 0 4 -28 35 -63 69 l-63 62 -97 0 -97 0 0 -193z"/>
<path d="M1685 1330 l59 -60 58 57 c32 32 58 59 58 60 0 2 -53 3 -117 3 l-117
0 59 -60z"/>
<path d="M1827 1325 l-69 -65 50 -58 c28 -31 88 -94 134 -140 79 -78 86 -82
111 -73 l27 11 0 195 0 195 -92 0 -93 0 -68 -65z"/>
<path d="M2100 1194 l0 -199 30 -17 c17 -9 34 -28 40 -42 l9 -24 195 -2 196
-1 0 200 0 199 -25 6 c-13 3 -32 20 -40 36 l-16 30 -103 0 c-56 0 -144 3 -194
6 l-92 7 0 -199z"/>
<path d="M1599 1103 c-131 -133 -136 -139 -125 -166 7 -20 7 -36 -1 -56 -10
-28 -7 -33 127 -166 l137 -136 137 132 c123 119 137 135 130 158 -9 34 -9 41
-1 72 6 23 -8 42 -124 163 -72 75 -134 136 -138 136 -3 0 -67 -62 -142 -137z"/>
<path d="M0 779 l0 -131 322 -324 321 -324 118 0 118 0 3 88 c3 48 5 252 6
455 l2 367 -445 0 -445 0 0 -131z"/>
<path d="M909 499 c0 -228 -2 -433 -5 -457 l-6 -42 126 0 125 0 286 282 286
282 -136 136 -137 137 -47 -5 c-45 -4 -49 -2 -77 32 l-30 35 -192 7 -192 7 -1
-414z"/>
<path d="M2170 876 c0 -38 -98 -74 -126 -46 -7 7 -58 -37 -152 -128 l-142
-137 277 -283 278 -283 128 1 127 0 0 198 c0 108 3 308 7 445 l6 247 -201 0
c-168 0 -202 -2 -202 -14z"/>
<path d="M2590 777 c0 -63 -3 -263 -7 -445 l-6 -332 132 0 132 0 306 302 c168
167 316 313 329 326 23 22 24 30 24 142 l0 120 -455 0 -455 0 0 -113z"/>
<path d="M0 313 l0 -313 307 0 308 0 -202 203 c-111 111 -249 252 -307 312
l-105 110 -1 -312z"/>
<path d="M3181 310 l-313 -310 316 0 316 0 0 310 c0 171 -1 310 -2 310 -2 -1
-144 -140 -317 -310z"/>
<path d="M1456 274 l-279 -274 549 0 548 0 -54 57 c-30 31 -152 155 -270 275
l-215 217 -279 -275z"/>
</g>
</svg>
